<?xml version="1.0" encoding="UTF-8"?>
<svg xmlns="http://www.w3.org/2000/svg" xmlns:xlink="http://www.w3.org/1999/xlink" width="40pt" height="40pt" viewBox="0 0 40 40" version="1.1">
<g id="surface1">
<path style=" stroke:none;fill-rule:nonzero;fill:rgb(99.215686%,65.098039%,21.960784%);fill-opacity:1;" d="M 38.992188 29.882812 C 39.003906 29.878906 39.019531 29.875 39.035156 29.875 C 39.046875 29.867188 39.058594 29.867188 39.070312 29.859375 C 39.085938 29.859375 39.101562 29.851562 39.113281 29.847656 C 39.128906 29.84375 39.140625 29.839844 39.152344 29.832031 C 39.164062 29.828125 39.175781 29.820312 39.191406 29.816406 C 39.203125 29.808594 39.214844 29.804688 39.226562 29.800781 C 39.238281 29.789062 39.25 29.785156 39.265625 29.777344 C 39.277344 29.769531 39.289062 29.761719 39.300781 29.753906 C 39.3125 29.746094 39.324219 29.738281 39.335938 29.726562 C 39.347656 29.71875 39.355469 29.710938 39.367188 29.703125 C 39.386719 29.6875 39.402344 29.671875 39.421875 29.65625 C 39.425781 29.652344 39.429688 29.648438 39.429688 29.648438 C 39.433594 29.644531 39.4375 29.640625 39.441406 29.636719 C 39.457031 29.621094 39.472656 29.605469 39.488281 29.585938 C 39.496094 29.574219 39.503906 29.5625 39.511719 29.550781 C 39.519531 29.539062 39.53125 29.53125 39.535156 29.515625 C 39.546875 29.503906 39.550781 29.492188 39.5625 29.476562 C 39.566406 29.46875 39.574219 29.453125 39.582031 29.445312 C 39.589844 29.429688 39.59375 29.417969 39.597656 29.40625 C 39.605469 29.394531 39.609375 29.378906 39.617188 29.367188 C 39.625 29.355469 39.625 29.339844 39.632812 29.328125 C 39.636719 29.316406 39.640625 29.304688 39.644531 29.289062 C 39.648438 29.273438 39.652344 29.261719 39.65625 29.246094 C 39.660156 29.234375 39.664062 29.21875 39.667969 29.207031 C 39.671875 29.191406 39.671875 29.175781 39.671875 29.15625 C 39.675781 29.148438 39.675781 29.136719 39.679688 29.125 C 39.683594 29.09375 39.683594 29.066406 39.683594 29.039062 L 39.683594 10.644531 C 39.683594 10.167969 39.296875 9.785156 38.820312 9.785156 L 11.710938 9.785156 C 11.707031 9.785156 11.699219 9.785156 11.691406 9.785156 C 11.675781 9.785156 11.660156 9.785156 11.640625 9.789062 C 11.628906 9.789062 11.617188 9.789062 11.605469 9.789062 C 11.589844 9.792969 11.574219 9.792969 11.5625 9.796875 C 11.546875 9.800781 11.53125 9.804688 11.519531 9.804688 C 11.503906 9.808594 11.492188 9.8125 11.476562 9.816406 C 11.464844 9.820312 11.453125 9.824219 11.441406 9.828125 C 11.425781 9.832031 11.410156 9.835938 11.398438 9.84375 C 11.386719 9.847656 11.375 9.851562 11.363281 9.859375 C 11.347656 9.863281 11.335938 9.871094 11.320312 9.878906 C 11.308594 9.882812 11.300781 9.890625 11.289062 9.894531 C 11.277344 9.90625 11.261719 9.910156 11.246094 9.921875 C 11.238281 9.925781 11.226562 9.933594 11.214844 9.941406 C 11.203125 9.953125 11.191406 9.957031 11.183594 9.96875 C 11.171875 9.976562 11.160156 9.984375 11.148438 9.996094 C 11.140625 10.003906 11.128906 10.011719 11.117188 10.023438 C 11.109375 10.035156 11.09375 10.042969 11.085938 10.058594 C 11.082031 10.0625 11.074219 10.066406 11.070312 10.074219 C 11.066406 10.074219 11.066406 10.082031 11.0625 10.085938 C 11.050781 10.097656 11.039062 10.109375 11.03125 10.121094 C 11.019531 10.132812 11.015625 10.140625 11.007812 10.152344 C 11 10.164062 10.988281 10.179688 10.984375 10.191406 C 10.976562 10.203125 10.96875 10.210938 10.960938 10.222656 C 10.957031 10.238281 10.949219 10.25 10.945312 10.265625 C 10.9375 10.273438 10.929688 10.285156 10.925781 10.300781 C 10.917969 10.3125 10.914062 10.328125 10.910156 10.339844 C 10.902344 10.351562 10.898438 10.363281 10.894531 10.378906 C 10.890625 10.390625 10.886719 10.402344 10.886719 10.417969 C 10.882812 10.433594 10.875 10.445312 10.871094 10.460938 C 10.871094 10.472656 10.871094 10.484375 10.867188 10.496094 C 10.863281 10.511719 10.859375 10.527344 10.859375 10.542969 C 10.855469 10.554688 10.855469 10.570312 10.855469 10.582031 C 10.855469 10.597656 10.855469 10.613281 10.855469 10.628906 C 10.855469 10.632812 10.855469 10.640625 10.855469 10.644531 L 10.855469 15.949219 C 10.855469 16.425781 11.238281 16.8125 11.710938 16.8125 C 12.191406 16.8125 12.574219 16.425781 12.574219 15.949219 L 12.574219 12.554688 L 20.226562 19.328125 C 20.183594 19.359375 20.148438 19.386719 20.109375 19.421875 L 12.574219 26.960938 L 12.574219 21.304688 C 12.574219 20.832031 12.191406 20.445312 11.710938 20.445312 C 11.238281 20.445312 10.855469 20.832031 10.855469 21.304688 L 10.855469 22.355469 L 6.40625 22.355469 C 5.929688 22.355469 5.546875 22.742188 5.546875 23.21875 C 5.546875 23.691406 5.929688 24.078125 6.40625 24.078125 L 10.855469 24.078125 L 10.855469 29.039062 C 10.855469 29.515625 11.238281 29.898438 11.710938 29.898438 L 38.820312 29.898438 C 38.851562 29.898438 38.878906 29.898438 38.90625 29.894531 C 38.917969 29.894531 38.933594 29.890625 38.945312 29.890625 C 38.960938 29.886719 38.976562 29.886719 38.992188 29.882812 Z M 37.960938 26.960938 L 30.425781 19.421875 C 30.417969 19.417969 30.414062 19.417969 30.410156 19.410156 L 36.078125 14.601562 C 36.4375 14.296875 36.484375 13.753906 36.175781 13.390625 C 35.867188 13.027344 35.324219 12.984375 34.960938 13.289062 L 25.277344 21.507812 L 13.984375 11.503906 L 37.960938 11.503906 Z M 21.328125 20.640625 C 21.390625 20.578125 21.441406 20.511719 21.476562 20.441406 L 24.695312 23.289062 C 24.859375 23.429688 25.066406 23.503906 25.265625 23.503906 C 25.464844 23.503906 25.664062 23.4375 25.824219 23.300781 L 29.105469 20.515625 C 29.136719 20.558594 29.167969 20.605469 29.207031 20.640625 L 36.742188 28.175781 L 13.792969 28.175781 Z M 21.328125 20.640625 "/>
<path style=" stroke:none;fill-rule:nonzero;fill:rgb(99.215686%,65.098039%,21.960784%);fill-opacity:1;" d="M 0.863281 19.582031 L 15.394531 19.582031 C 15.871094 19.582031 16.253906 19.199219 16.253906 18.722656 C 16.253906 18.246094 15.871094 17.863281 15.394531 17.863281 L 0.863281 17.863281 C 0.382812 17.863281 0 18.246094 0 18.722656 C 0 19.199219 0.382812 19.582031 0.863281 19.582031 Z M 0.863281 19.582031 "/>
<path style=" stroke:none;fill-rule:nonzero;fill:rgb(99.215686%,65.098039%,21.960784%);fill-opacity:1;" d="M 2.367188 14.839844 L 8.890625 14.839844 C 9.367188 14.839844 9.753906 14.457031 9.753906 13.980469 C 9.753906 13.503906 9.367188 13.121094 8.890625 13.121094 L 2.367188 13.121094 C 1.890625 13.121094 1.507812 13.503906 1.507812 13.980469 C 1.507812 14.457031 1.890625 14.839844 2.367188 14.839844 Z M 2.367188 14.839844 "/>
<path style=" stroke:none;fill-rule:nonzero;fill:rgb(99.215686%,65.098039%,21.960784%);fill-opacity:1;" d="M 7.171875 25.992188 L 0.863281 25.992188 C 0.382812 25.992188 0 26.375 0 26.851562 C 0 27.328125 0.382812 27.710938 0.863281 27.710938 L 7.171875 27.710938 C 7.648438 27.710938 8.03125 27.328125 8.03125 26.851562 C 8.03125 26.375 7.648438 25.992188 7.171875 25.992188 Z M 7.171875 25.992188 "/>
</g>
</svg>
